<?xml version="1.0" encoding="utf-8"?>
<!-- Generator: Adobe Illustrator 27.3.1, SVG Export Plug-In . SVG Version: 6.00 Build 0)  -->
<svg version="1.1" id="Layer_1" xmlns="http://www.w3.org/2000/svg" xmlns:xlink="http://www.w3.org/1999/xlink" x="0px" y="0px"
	 width="5000px" height="2125px" viewBox="0 0 5000 2125" style="enable-background:new 0 0 5000 2125;" xml:space="preserve">
<style type="text/css">
	.st0{fill-rule:evenodd;clip-rule:evenodd;fill:#00D9FF;}
	.st1{fill-rule:evenodd;clip-rule:evenodd;fill:#0A1628;}
	.st2{fill:#0A1628;}
</style>
<path class="st0" d="M4002.4,878.9c-107.1,258.3-181.8,575.8-211.1,900.3h23.1c93-371.9,406.1-946.4,728.5-1276.4
	c7.7-7.9,9.4-19.4,4.1-29.1c-5.2-9.7-15.7-14.8-26.5-12.7C3636.4,626.7,802,1679.3,1285.1,837.4
	C656.7,1750.7,3454.5,1004,4002.4,878.9"/>
<path class="st1" d="M3475.6,379.8C2374.7,828.1,1455,1173.5,1313.2,1020.3c1.5,5.8,3.8,11.3,6.8,16.4
	c68.8,113.9,495.5,46.7,603.2,28.6c630-105.6,1176.7-306.7,1777.7-485.9l-172.3-187.7C3514.9,376.8,3494.4,372.2,3475.6,379.8"/>
<path class="st0" d="M1455.8,983.1c33.7,2.3,69.4-0.4,88.5-2.4c58.4-5.9,117.2-17.8,174.3-31.4c75.9-18,151.2-39.8,225.6-63.2
	c380.4-119.3,752.9-268,1121.3-420.1l-116.7-110c-11.1-10.4-26.4-13-40.4-6.9L1455.8,983.1z"/>
<path class="st2" d="M789.2,1266.4h80.9v506.5h-80.9V1266.4z"/>
<path class="st2" d="M1049.5,1776.9c-22.9,0-43.7-3.6-62.4-10.8c-18.7-7.2-34.6-17.8-47.9-31.7c-13.3-13.9-23.5-30.9-30.7-50.9
	s-10.8-43-10.8-69.1v-314.3h80.9V1435h70.8v74.2h-70.1v109.9c0,22.9,5.8,42.6,17.5,59s29.2,24.6,52.6,24.6L1049.5,1776.9
	L1049.5,1776.9z"/>
<path class="st2" d="M1402.3,1588.8v184.1h-80.9V1754c-13,8.5-27.3,14.5-42.8,17.9s-30.9,5.1-46.2,5.1c-29.2,0-54.9-4.9-76.9-14.8
	s-40.2-22.9-54.6-39.1s-25.2-34.6-32.4-55.3c-7.2-20.7-10.8-42-10.8-64.1c0-28.3,5.3-53.4,15.8-75.2c10.6-21.8,24.3-39.9,41.1-54.3
	c16.9-14.4,36.1-25.3,57.7-32.7c21.6-7.4,43.4-11.1,65.4-11.1c21.1,0,41.5,3,61,9.1c19.6,6.1,37.1,15.5,52.6,28.3
	s27.9,29.2,37.1,49.2C1397.6,1537,1402.3,1560.9,1402.3,1588.8z M1138.6,1602.9c0,12.1,2.1,24.2,6.4,36.1s10.7,22.6,19.2,32
	s19.2,17.1,32,22.9s27.8,8.8,44.9,8.8c13.9,0,26.1-2.8,36.4-8.4s19-13,26-22.3c7-9.2,12.2-19.8,15.8-31.7
	c3.6-11.9,5.4-23.9,5.4-36.1c0.4-16.6-1.8-31-6.7-43.2c-5-12.1-11.6-22.3-19.9-30.4s-17.9-14.3-28.7-18.5c-10.8-4.3-22-6.4-33.7-6.4
	c-12.1,0-23.9,2-35.4,6.1c-11.5,4-21.8,10.1-31,18.2s-16.6,18.2-22.3,30.4C1141.4,1572.6,1138.6,1586.7,1138.6,1602.9z"/>
<path class="st2" d="M1565.5,1430.3c40,0,71.5,12.1,94.4,36.4c23.4-24.3,54.9-36.4,94.4-36.4c43.6,0,77,14.1,100.2,42.2
	s34.7,67.3,34.7,117.7v182.1h-80.9v-203c0-22.5-5.6-38.9-16.9-49.2c-11.2-10.3-23.6-15.5-37.1-15.5c-13.9,0-26.5,5.2-37.8,15.5
	c-11.2,10.3-16.9,26.8-16.9,49.2v203h-80.3v-203c0-22.5-5.6-38.9-16.9-49.2c-11.2-10.3-23.6-15.5-37.1-15.5
	c-13.9,0-26.5,5.2-37.8,15.5c-11.2,10.3-16.9,26.8-16.9,49.2v203h-80.9v-182.1c0-50.4,11.7-89.6,35.1-117.7
	C1488.4,1444.3,1521.9,1430.3,1565.5,1430.3z"/>
<path class="st2" d="M2260.8,1588.8v184.1h-80.9V1754c-13,8.5-27.3,14.5-42.8,17.9s-30.9,5.1-46.2,5.1c-29.2,0-54.9-4.9-76.9-14.8
	s-40.2-22.9-54.6-39.1s-25.2-34.6-32.4-55.3c-7.2-20.7-10.8-42-10.8-64.1c0-28.3,5.3-53.4,15.8-75.2c10.6-21.8,24.3-39.9,41.1-54.3
	c16.9-14.4,36.1-25.3,57.7-32.7c21.6-7.4,43.4-11.1,65.4-11.1c21.1,0,41.5,3,61,9.1c19.6,6.1,37.1,15.5,52.6,28.3
	s27.9,29.2,37.1,49.2C2256.2,1537,2260.8,1560.9,2260.8,1588.8z M1997.1,1602.9c0,12.1,2.1,24.2,6.4,36.1s10.7,22.6,19.2,32
	s19.2,17.1,32,22.9s27.8,8.8,44.9,8.8c13.9,0,26.1-2.8,36.4-8.4c10.3-5.6,19-13,26-22.3c7-9.2,12.2-19.8,15.8-31.7
	c3.6-11.9,5.4-23.9,5.4-36.1c0.4-16.6-1.8-31-6.7-43.2c-5-12.1-11.6-22.3-19.9-30.4c-8.3-8.1-17.9-14.3-28.7-18.5
	c-10.8-4.3-22-6.4-33.7-6.4c-12.1,0-23.9,2-35.4,6.1c-11.5,4-21.8,10.1-31,18.2s-16.6,18.2-22.3,30.4
	C1999.9,1572.6,1997.1,1586.7,1997.1,1602.9z"/>
<path class="st2" d="M2287.8,1772.2v-245.5c0-27,8.3-49,25-66.1c16.6-17.1,41.1-25.6,73.5-25.6h101.2v74.2h-89
	c-10.8,0-18.4,2.5-22.9,7.4c-4.5,5-6.7,11.5-6.7,19.6v236.1L2287.8,1772.2L2287.8,1772.2z"/>
<path class="st2" d="M2513.8,1435h80.9v337.2h-80.9V1435z"/>
<path class="st2" d="M2774.1,1776.9c-22.9,0-43.7-3.6-62.4-10.8c-18.7-7.2-34.6-17.8-47.9-31.7c-13.3-13.9-23.5-30.9-30.7-50.9
	s-10.8-43-10.8-69.1v-314.3h80.9V1435h70.8v74.2h-70v109.9c0,22.9,5.8,42.6,17.5,59s29.2,24.6,52.6,24.6V1776.9z"/>
<path class="st2" d="M2795,1435h80.9v337.2H2795V1435z"/>
<path class="st2" d="M3039.8,1430.3c40,0,71.5,12.1,94.4,36.4c23.4-24.3,54.9-36.4,94.4-36.4c43.6,0,77,14.1,100.2,42.2
	s34.7,67.3,34.7,117.7v182.1h-80.9v-203c0-22.5-5.6-38.9-16.9-49.2c-11.2-10.3-23.6-15.5-37.1-15.5c-13.9,0-26.5,5.2-37.8,15.5
	c-11.2,10.3-16.9,26.8-16.9,49.2v203h-80.3v-203c0-22.5-5.6-38.9-16.9-49.2c-11.2-10.3-23.6-15.5-37.1-15.5
	c-13.9,0-26.5,5.2-37.8,15.5c-11.2,10.3-16.9,26.8-16.9,49.2v203H2904v-182.1c0-50.4,11.7-89.6,35.1-117.7
	C2962.7,1444.3,2996.2,1430.3,3039.8,1430.3z"/>
<path class="st2" d="M3741.3,1654.2c-4.5,16.6-11.4,32.5-20.6,47.5c-9.2,15.1-20.9,28.2-35.1,39.5c-14.2,11.2-30.9,20.1-50.2,26.6
	s-41.4,9.8-66.1,9.8c-31,0-57.8-5-80.3-14.8c-22.5-9.9-41-23-55.6-39.5c-14.6-16.4-25.4-35.1-32.4-56s-10.5-42.4-10.5-64.4
	s3.5-43.5,10.5-64.4s17.8-39.6,32.4-56c14.6-16.4,33.2-29.6,55.6-39.5c22.5-9.9,49.2-14.8,80.3-14.8c29.2,0,54.6,5,76.2,14.8
	c21.6,9.9,39.5,23,53.6,39.5c14.2,16.4,24.7,35.1,31.7,56s10.5,42.4,10.5,64.4c0,4-0.2,8.2-0.7,12.5s-0.9,8.4-1.3,12.5h-266.4
	c4.9,20.2,15.3,37.9,31,52.9c15.7,15.1,37.5,22.6,65.4,22.6c21.6,0,39.6-4.6,54-13.8c14.4-9.2,25.4-21,33-35.4L3741.3,1654.2
	L3741.3,1654.2z M3653.6,1560.4c-6.3-16.6-16.5-30.5-30.7-41.5s-32-16.5-53.6-16.5c-23.8,0-43.3,5.6-58.3,16.9
	c-15.1,11.2-26,25-32.7,41.1H3653.6z"/>
<path class="st2" d="M761.6,1588.8v184.1h-80.9V1754c-13,8.5-27.3,14.5-42.8,17.9s-30.9,5.1-46.2,5.1c-29.2,0-54.9-4.9-76.9-14.8
	s-40.2-22.9-54.6-39.1s-25.2-34.6-32.4-55.3c-7.2-20.7-10.8-42-10.8-64.1c0-28.3,5.3-53.4,15.8-75.2c10.6-21.8,24.3-39.9,41.1-54.3
	c16.9-14.4,36.1-25.3,57.7-32.7c21.6-7.4,43.4-11.1,65.4-11.1c21.1,0,41.5,3,61,9.1c19.6,6.1,37.1,15.5,52.6,28.3
	s27.9,29.2,37.1,49.2C756.9,1537,761.6,1560.9,761.6,1588.8z M497.9,1602.9c0,12.1,2.1,24.2,6.4,36.1s10.7,22.6,19.2,32
	s19.2,17.1,32,22.9s27.8,8.8,44.9,8.8c13.9,0,26.1-2.8,36.4-8.4s19-13,26-22.3c7-9.2,12.2-19.8,15.8-31.7
	c3.6-11.9,5.4-23.9,5.4-36.1c0.4-16.6-1.8-31-6.7-43.2c-5-12.1-11.6-22.3-19.9-30.4s-17.9-14.3-28.7-18.5c-10.8-4.3-22-6.4-33.7-6.4
	c-12.1,0-23.9,2-35.4,6.1c-11.5,4-21.8,10.1-31,18.2s-16.6,18.2-22.3,30.4C500.7,1572.6,497.9,1586.7,497.9,1602.9z"/>
</svg>
